<svg width="512" height="512" viewBox="0 0 512 512" fill="none" xmlns="http://www.w3.org/2000/svg">
	<path d="M209.91 426.333C209.91 451.787 230.545 472.423 256 472.423C281.455 472.423 302.09 451.787 302.09 426.333M256 241.973C297.502 241.973 331.147 275.617 331.147 317.119V390.262H180.853V317.119C180.853 275.617 214.498 241.973 256 241.973ZM256 241.973C244.932 241.973 235.961 233.001 235.961 221.933C235.961 210.866 244.932 201.894 256 201.894C267.068 201.894 276.039 210.866 276.039 221.933C276.039 233.001 267.068 241.973 256 241.973ZM456.391 309.65C456.391 417.254 366.673 504.485 256 504.485C145.327 504.485 55.6086 417.255 55.6086 309.65C55.6086 254.837 90.5489 204.9 90.5489 204.9C90.5489 204.9 90.5298 254.998 139.876 254.998C168.477 254.998 189.204 232.455 189.204 204.648C189.204 163.923 123.133 101.377 189.685 36.6696C232.088 -4.5589 319.906 10.0146 319.906 10.0146C319.906 10.0146 289.828 32.9674 289.828 76.281C289.827 153.246 456.391 159.958 456.391 309.65ZM356.196 408.297C356.196 398.337 348.121 390.262 338.16 390.262H173.84C163.879 390.262 155.804 398.337 155.804 408.297C155.804 418.258 163.879 426.333 173.84 426.333H338.16C348.121 426.333 356.196 418.258 356.196 408.297Z" stroke="url(#paint0_linear_1_2)" stroke-width="15.0294" stroke-miterlimit="10"/>
	<defs>
		<linearGradient id="paint0_linear_1_2" x1="256" y1="-1.5377e-08" x2="256" y2="512" gradientUnits="userSpaceOnUse">
			<stop stop-color="#004EA6"/>
			<stop offset="1" stop-color="#CA42B2"/>
		</linearGradient>
	</defs>
</svg>
