<svg xmlns="http://www.w3.org/2000/svg" version="1.1" xmlns:xlink="http://www.w3.org/1999/xlink" xmlns:svgjs="http://svgjs.com/svgjs" width="512" height="512" x="0" y="0" viewBox="0 0 511 511" style="enable-background:new 0 0 512 512" xml:space="preserve" class=""><g><linearGradient id="a" x1="255.5" x2="255.5" y1="7.5" y2="503.5" gradientUnits="userSpaceOnUse"><stop offset="0" style="stop-color:#A7ACFF"></stop><stop offset="1" style="stop-color:#FFC8FF"></stop></linearGradient><path d="M455.5 309.045c0 107.394-89.543 194.455-200 194.455s-200-87.06-200-194.455c0-54.706 34.872-104.545 34.872-104.545s-.019 50 49.231 50c28.545 0 49.231-22.499 49.231-50.252 0-40.645-65.942-103.069.481-167.65C231.635-4.55 319.281 9.995 319.281 9.995s-30.019 22.908-30.019 66.137c-.001 76.815 166.238 83.514 166.238 232.913z" style="fill:url(#a);" fill=""></path><path d="M337.5 389.5h-7v-73c0-41.421-33.579-75-75-75s-75 33.579-75 75v73h-7c-9.941 0-18 8.059-18 18s8.059 18 18 18h36c0 25.405 20.595 46 46 46s46-20.595 46-46h36c9.941 0 18-8.059 18-18s-8.059-18-18-18z" style="" fill="#ffffff" data-original="#ffffff" class=""></path><linearGradient id="b" x1="255.5" x2="255.5" y1="0" y2="511" gradientUnits="userSpaceOnUse"><stop offset="0" style="stop-color:#004EA6"></stop><stop offset="1" style="stop-color:#CA42B2"></stop></linearGradient><path d="M455.5 309.045c0 107.394-89.543 194.455-200 194.455s-200-87.06-200-194.455c0-54.706 34.872-104.545 34.872-104.545s-.019 50 49.231 50c28.545 0 49.231-22.499 49.231-50.252 0-40.645-65.942-103.069.481-167.65C231.635-4.55 319.281 9.995 319.281 9.995s-30.019 22.908-30.019 66.137c-.001 76.815 166.238 83.514 166.238 232.913zM209.5 425.5c0 25.405 20.595 46 46 46s46-20.595 46-46m54-18c0-9.941-8.059-18-18-18h-164c-9.941 0-18 8.059-18 18s8.059 18 18 18h164c9.941 0 18-8.059 18-18zm-25-91c0-41.421-33.579-75-75-75s-75 33.579-75 75v73h150v-73zm-75-115c-11.046 0-20 8.954-20 20s8.954 20 20 20 20-8.954 20-20-8.954-20-20-20z" style="fill:none;stroke:url(#b);stroke-width:15;stroke-miterlimit:10;" fill="none" stroke-width="15" stroke-miterlimit="10"></path></g></svg>