<?xml version="1.0" standalone="yes"?>
<svg xmlns="http://www.w3.org/2000/svg" width="512" height="512">
<path style="fill:#010101; stroke:none;" d="M0 0L0 512L235 512L235 511C210.144 510.794 183.936 501.215 162 490.247C68.6946 443.594 21.084 331.782 65.2307 235C73.2885 217.335 83.7637 193.584 99 181C99 199.293 96.3379 219.974 109.329 234.96C129.541 258.276 169.765 246.424 178.91 219C187.429 193.452 168.491 165.297 160.054 142C145.789 102.608 152.059 64.8134 181.17 34.0394C190.491 24.185 202.602 16.7296 215 11.4275C229.411 5.26434 246.278 1.0433 262 1L238 0L185 0L0 0z"/>
<path style="fill:#5b87ca; stroke:none;" d="M262 0L263 1L262 0z"/>
<path style="fill:#494bab; stroke:none;" d="M99 181C90.582 185.603 84.339 198.991 79.3194 207C61.1134 236.049 50.4822 268.96 48 303L63 303C63.215 277.03 74.0517 248.184 87 226C105.205 272.924 176.128 274.979 192.996 225C206.281 185.639 173.4 149.945 168.289 112C167.137 103.452 167.175 95.4991 168.805 87C180.336 26.862 250.609 9.37888 303 16C296.179 27.0539 289.77 37.4097 286.036 50C264.888 121.313 346.09 151.443 390 188.439C424.093 217.163 448.97 257.256 449 303L464 303C464 240.239 425.609 193.452 377 158.152C350.943 139.229 302.076 117.322 298.174 81C295.892 59.7634 305.143 37.4157 319.579 22.1698C325.522 15.8939 333.591 11.6445 339 5C280.649 -2.41315 211.162 -7.85364 171.131 45C165.183 52.8529 160.17 61.6958 156.864 71C152.888 82.1917 151.521 94.173 152.039 106C153.087 129.931 163.661 152.155 172.4 174C178.737 189.842 185.067 206.486 177.019 223C164.731 248.21 127.003 256.678 108.529 232.996C96.7564 217.904 99 198.891 99 181z"/>
<path style="fill:#010101; stroke:none;" d="M307 0L307 1L339 5C314.026 26.6114 285.05 58.8745 302.12 95C311.988 115.882 333.846 128.586 352 141.424C383.321 163.574 416.445 185.319 437.921 218C501.433 314.647 444.833 444.78 347 491.778C325.807 501.958 300.797 510.803 277 511L277 512L512 512L512 0L307 0z"/>
<path style="fill:#5b87ca; stroke:none;" d="M219 9L220 10L219 9M327 14L328 15L327 14M268 15L268 16L300 16L268 15M257 16L257 17L263 17L257 16z"/>
<path style="fill:#dec9ff; stroke:none;" d="M87 227C77.9061 237.975 73.1718 255.479 69.2909 269C49.2173 338.934 81.3357 416.557 139 458.845C221.716 519.505 342.025 505.543 407.385 426C457.91 364.511 466.382 266.055 408.961 206C400.287 196.928 390.946 188.547 381 180.887C337.784 147.608 266.696 117.392 285.428 51C289.138 37.8515 295.922 27.4696 303 16C284.235 16 265.546 15.2477 247 18.6142C233.728 21.0233 220.743 25.1549 209 31.8727C199.986 37.0295 192.456 43.9079 186.004 52C163.353 80.4066 165.314 112.636 177.811 145C187.434 169.923 202.662 195.658 193.971 223C183.59 255.664 143.631 272.977 113 256.677C100.158 249.843 93.5804 239.341 87 227z"/>
<path style="fill:#5b87ca; stroke:none;" d="M250 17L250 18L255 18L250 17M302 17L303 18L302 17M245 18L245 19L248 19L245 18M301 18L302 19L301 18M240 19L240 20L243 20L240 19M300 19L301 20L300 19M236 20L236 21L239 21L236 20M320 20L321 21L320 20M233.667 21.3333L234.333 21.6667L233.667 21.3333M299 21L300 22L299 21M229.667 22.3333L230.333 22.6667L229.667 22.3333M298 22L299 23L298 22M226.667 23.3333L227.333 23.6667L226.667 23.3333M224 24L225 25L224 24M297 24L298 25L297 24M221.667 25.3333L222.333 25.6667L221.667 25.3333M296 25L297 26L296 25M219 26L220 27L219 26M216.667 27.3333L217.333 27.6667L216.667 27.3333M295 27L296 28L295 27M214.667 28.3333L215.333 28.6667L214.667 28.3333M212.667 29.3333L213.333 29.6667L212.667 29.3333M294 29L295 30L294 29M210.667 30.3333L211.333 30.6667L210.667 30.3333M293.333 30.6667L293.667 31.3333L293.333 30.6667M209 31L210 32L209 31M207 32L208 33L207 32M292.333 32.6667L292.667 33.3333L292.333 32.6667M206 33L207 34L206 33M204 34L205 35L204 34M291.333 34.6667L291.667 35.3333L291.333 34.6667M179 35L180 36L179 35M203 35L204 36L203 35M201 36L202 37L201 36M290.333 36.6667L290.667 37.3333L290.333 36.6667M200 37L201 38L200 37M199 38L200 39L199 38M289 39L290 40L289 39M196 40L197 41L196 40M195 41L196 42L195 41M288.333 41.6667L288.667 42.3333L288.333 41.6667M194 42L195 43L194 42M193 43L194 44L193 43M192 44L193 45L192 44M287.333 44.6667L287.667 45.3333L287.333 44.6667M191 45L192 46L191 45M190 46L191 47L190 46M286.333 47.6667L286.667 48.3333L286.333 47.6667M187 50L188 51L187 50M285.333 50.6667L285.667 51.3333L285.333 50.6667M186 51L187 52L186 51M185 52L186 53L185 52M165 53L166 54L165 53M184 53L185 54L184 53M284 54L284 57L285 57L284 54M183 55L184 56L183 55M182 56L183 57L182 56M181 57L182 58L181 57M180 59L181 60L180 59M283 59L283 62L284 62L283 59M161 60L162 61L161 60M179 60L180 61L179 60M178 62L179 63L178 62M177 64L178 65L177 64M176.333 65.6667L176.667 66.3333L176.333 65.6667M282 66L282 84L283 84L282 66M175 67L176 68L175 67M157 69L158 70L157 69M174.333 69.6667L174.667 70.3333L174.333 69.6667M173.333 71.6667L173.667 72.3333L173.333 71.6667M172 74L173 75L172 74M155 75L156 76L155 75M171.333 76.6667L171.667 77.3333L171.333 76.6667M170.333 79.6667L170.667 80.3333L170.333 79.6667M169.333 83.6667L169.667 84.3333L169.333 83.6667M283 87L283 90L284 90L283 87M168 88L168 91L169 91L168 88M284 92L285 93L284 92M285 95L286 96L285 95M167 96L167 105L168 105L167 96M286 98L287 99L286 98M287 100L288 101L287 100M288 102L289 103L288 102M289 104L290 105L289 104M290 106L291 107L290 106M292 109L293 110L292 109M168 110L168 114L169 114L168 110M293 111L294 112L293 111M294 112L295 113L294 112M295 113L296 114L295 113M297 116L298 117L297 116M169.333 117.667L169.667 118.333L169.333 117.667M298 117L299 118L298 117M320 117L321 118L320 117M299 118L300 119L299 118M300 119L301 120L300 119M170 121L170 124L171 124L170 121M171 126L172 127L171 126M308 127L309 128L308 127M309 128L310 129L309 128M172.333 129.667L172.667 130.333L172.333 129.667M310 129L311 130L310 129M335 129L336 130L335 129M311 130L312 131L311 130M312 131L313 132L312 131M173.333 132.667L173.667 133.333L173.333 132.667M316 134L317 135L316 134M174.333 135.667L174.667 136.333L174.333 135.667M317 135L318 136L317 135M318 136L319 137L318 136M175.333 138.667L175.667 139.333L175.333 138.667M321 138L322 139L321 138M322 139L323 140L322 139M176.333 141.667L176.667 142.333L176.333 141.667M325 141L326 142L325 141M352 141L353 142L352 141M326 142L327 143L326 142M328 143L329 144L328 143M177 144L178 145L177 144M329 144L330 145L329 144M178.333 146.667L178.667 147.333L178.333 146.667M332 146L333 147L332 146M333 147L334 148L333 147M179 149L180 150L179 149M336 149L337 150L336 149M365 150L366 151L365 150M180.333 151.667L180.667 152.333L180.333 151.667M339 151L340 152L339 151M340 152L341 153L340 152M342 153L343 154L342 153M181 154L182 155L181 154M343 154L344 155L343 154M345 155L346 156L345 155M182.333 156.667L182.667 157.333L182.333 156.667M346 156L347 157L346 156M349 158L350 159L349 158M183 159L184 160L183 159M352 160L353 161L352 160M184 161L185 162L184 161M353 161L354 162L353 161M355 162L356 163L355 162M356 163L357 164L356 163M185 164L186 165L185 164M358 164L359 165L358 164M359 165L360 166L359 165M186 166L187 167L186 166M362 167L363 168L362 167M187.333 168.667L187.667 169.333L187.333 168.667M365 169L366 170L365 169M366 170L367 171L366 170M188 171L189 172L188 171M368 171L369 172L368 171M369 172L370 173L369 172M189.333 173.667L189.667 174.333L189.333 173.667M372 174L373 175L372 174M373 175L374 176L373 175M190 176L191 177L190 176M376 177L377 178L376 177M377 178L378 179L377 178M191 179L192 180L191 179M380 180L381 181L380 180M381 181L382 182L381 181M192 182L193 183L192 182M385 184L386 185L385 184M193.333 185.667L193.667 186.333L193.333 185.667M386 185L387 186L386 185M387 186L388 187L387 186M194.333 188.667L194.667 189.333L194.333 188.667M390 188L391 189L390 188M391 189L392 190L391 189M414 189L415 190L414 189M392 190L393 191L392 190M415 190L416 191L415 190M393 191L394 192L393 191M416 191L417 192L416 191M195.333 193.667L195.667 194.333L195.333 193.667M252 194L252 195L260 195L252 194M248 195L249 196L248 195z"/>
<path style="fill:#494bab; stroke:none;" d="M233 238C202.321 246.879 181.022 271.968 175 303C178.688 303 185.32 304.263 188.437 301.972C191.046 300.055 191.822 294.868 193.012 292C195.547 285.887 198.798 279.992 203.184 275C216.689 259.63 235.087 249.008 256 249.008C276.913 249.008 295.311 259.63 308.816 275C313.202 279.992 316.453 285.887 318.988 292C320.178 294.868 320.954 300.055 323.563 301.972C326.68 304.263 333.312 303 337 303C330.991 272.032 309.63 246.865 279 238C282.55 229.299 284.918 220.132 281.045 211C269.96 184.865 229.582 192.754 229.015 221C228.89 227.252 230.674 232.301 233 238z"/>
<path style="fill:#5b87ca; stroke:none;" d="M263 195L264 196L263 195M245 196L246 197L245 196M266 196L267 197L266 196M399 196L400 197L399 196M243 197L244 198L243 197M268 197L269 198L268 197M400 197L401 198L400 197M196 198L196 212L197 212L196 198M241 198L242 199L241 198M270 198L271 199L270 198M401 198L402 199L401 198M402 199L403 200L402 199M238 200L239 201L238 200M273 200L274 201L273 200M403 200L404 201L403 200M237 201L238 202L237 201M274 201L275 202L274 201M404 201L405 202L404 201M236 202L237 203L236 202M275 202L276 203L275 202M405 202L406 203L405 202M426 202L427 203L426 202M235 203L236 204L235 203M276 203L277 204L276 203M406 203L407 204L406 203M234 204L235 205L234 204M277 204L278 205L277 204M407 204L408 205L407 204M408 205L409 206L408 205M278 206L279 207L278 206M409 206L410 207L409 206M232 207L233 208L232 207M279 207L280 208L279 207M231 209L232 210L231 209M253 209L253 210L259 210L253 209M280 209L281 210L280 209M251 210L252 211L251 210z"/>
<path style="fill:#dec9ff; stroke:none;" d="M252.004 210.653C237.287 215.305 245.085 238.061 259.996 233.347C274.713 228.694 266.915 205.939 252.004 210.653z"/>
<path style="fill:#5b87ca; stroke:none;" d="M260 210L261 211L260 210M230 211L231 212L230 211M249 211L250 212L249 211M262 211L263 212L262 211M281 211L282 212L281 211M413 211L414 212L413 211M180 212L181 213L180 212M414 212L415 213L414 212M415 213L416 214L415 213M229.333 214.667L229.667 215.333L229.333 214.667M282.333 214.667L282.667 215.333L282.333 214.667M416 214L417 215L416 214M195 215L195 218L196 218L195 215M245 215L246 216L245 215M266 215L267 216L266 215M436 215L437 216L436 215M244 217L245 218L244 217M267 217L268 218L267 217M418 217L419 218L418 217M228 218L228 226L229 226L228 218M283 218L283 226L284 226L283 218M419 218L420 219L419 218M438 218L439 219L438 218M243 219L243 225L244 225L243 219M268 219L268 224L269 224L268 219M194.333 220.667L194.667 221.333L194.333 220.667M421 221L422 222L421 221M177 222L178 223L177 222M422 222L423 223L422 222M193.333 223.667L193.667 224.333L193.333 223.667M424 225L425 226L424 225M86 226L87 227L86 226M192.333 226.667L192.667 227.333L192.333 226.667M244 226L245 227L244 226M267 226L268 227L267 226M87 227L88 228L87 227M85 228L86 229L85 228M229.333 228.667L229.667 229.333L229.333 228.667M245 228L246 229L245 228M266 228L267 229L266 228M282.333 228.667L282.667 229.333L282.333 228.667M426 228L427 229L426 228M67 229L68 230L67 229M88 229L89 230L88 229M191 229L192 230L191 229M84 230L85 231L84 230M427 230L428 231L427 230M190 231L191 232L190 231M428 231L429 232L428 231M83 232L84 233L83 232M89 232L90 233L89 232M230 232L231 233L230 232M249 232L250 233L249 232M262 232L263 233L262 232M281 232L282 233L281 232M189 233L190 234L189 233M251 233L252 234L251 233M260 233L261 234L260 233M429 233L430 234L429 233M82 234L83 235L82 234M90 234L91 235L90 234M231 234L232 235L231 234M254 234L254 235L258 235L254 234M280 234L281 235L280 234M430 235L431 236L430 235M81 236L82 237L81 236M91 236L92 237L91 236M187 236L188 237L187 236M232 236L233 237L232 236M279 236L280 237L279 236M92 237L93 238L92 237M431 237L432 238L431 237M80 238L81 239L80 238M186 238L187 239L186 238M230.667 238.333L231.333 238.667L230.667 238.333M280.667 238.333L281.333 238.667L280.667 238.333M432 238L433 239L432 238M93 239L94 240L93 239M185 239L186 240L185 239M227 239L228 240L227 239M284 239L285 240L284 239M79 240L80 241L79 240M225 240L226 241L225 240M286 240L287 241L286 240M433 240L434 241L433 240M222 241L223 242L222 241M289 241L290 242L289 241M95 242L96 243L95 242M183 242L184 243L183 242M220 242L221 243L220 242M291 242L292 243L291 242M434 242L435 243L434 242M78 243L79 244L78 243M96 243L97 244L96 243M121 243L122 244L121 243M182 243L183 244L182 243M218 243L219 244L218 243M293 243L294 244L293 243M97 244L98 245L97 244M181 244L182 245L181 244M216 244L217 245L216 244M295 244L296 245L295 244z"/>
<path style="fill:#a846b2; stroke:none;" d="M435 244L436 245L435 244z"/>
<path style="fill:#5b87ca; stroke:none;" d="M77 245L78 246L77 245M180 245L181 246L180 245M214 245L215 246L214 245M435 245L436 246L435 245M179 246L180 247L179 246M213 246L214 247L213 246M298 246L299 247L298 246z"/>
<path style="fill:#a846b2; stroke:none;" d="M76 247L77 248L76 247z"/>
<path style="fill:#5b87ca; stroke:none;" d="M178 247L179 248L178 247M211 247L212 248L211 247M300 247L301 248L300 247M436 247L437 248L436 247M59 248L60 249L59 248M76 248L77 249L76 248M177 248L178 249L177 248z"/>
<path style="fill:#a846b2; stroke:none;" d="M301 248L302 249L301 248z"/>
<path style="fill:#5b87ca; stroke:none;" d="M176 249L177 250L176 249M208 249L209 250L208 249M249 249L249 250L254 250L249 249z"/>
<path style="fill:#dec9ff; stroke:none;" d="M188 383L324 383C324 351.173 331.345 309.066 313.302 281C284.908 236.834 216.255 240.325 194.312 289C181.941 316.44 188 353.573 188 383z"/>
<path style="fill:#5b87ca; stroke:none;" d="M258 249L258 250L263 250L258 249M303 249L304 250L303 249M437 249L438 250L437 249M75 250L76 251L75 250M103 250L104 251L103 250M207 250L208 251L207 250M243 250L244 251L243 250M268 250L269 251L268 250M304 250L305 251L304 250M104 251L105 252L104 251M173 251L174 252L173 251M238.667 251.333L239.333 251.667L238.667 251.333M272.667 251.333L273.333 251.667L272.667 251.333M438.333 251.667L438.667 252.333L438.333 251.667z"/>
<path style="fill:#a846b2; stroke:none;" d="M74 252L75 253L74 252z"/>
<path style="fill:#5b87ca; stroke:none;" d="M172 252L173 253L172 252M204 252L205 253L204 252M235 252L236 253L235 252M276 252L277 253L276 252M307 252L308 253L307 252M74 253L75 254L74 253M107 253L108 254L107 253z"/>
<path style="fill:#a846b2; stroke:none;" d="M170 253L171 254L170 253z"/>
<path style="fill:#5b87ca; stroke:none;" d="M203 253L204 254L203 253M232 253L233 254L232 253M279 253L280 254L279 253M308 253L309 254L308 253M169 254L170 255L169 254M202 254L203 255L202 254M309 254L310 255L309 254M439 254L440 255L439 254M73 255L74 256L73 255M110 255L111 256L110 255M167 255L168 256L167 255M227 255L228 256L227 255M284 255L285 256L284 255z"/>
<path style="fill:#a846b2; stroke:none;" d="M310 255L311 256L310 255z"/>
<path style="fill:#5b87ca; stroke:none;" d="M112 256L113 257L112 256M165 256L166 257L165 256M225 256L226 257L225 256M286 256L287 257L286 256M114 257L115 258L114 257M163 257L164 258L163 257M223 257L224 258L223 257z"/>
<path style="fill:#a846b2; stroke:none;" d="M288 257L289 258L288 257z"/>
<path style="fill:#5b87ca; stroke:none;" d="M440 257L441 258L440 257M72 258L73 259L72 258M116 258L117 259L116 258z"/>
<path style="fill:#a846b2; stroke:none;" d="M117 258L118 259L117 258M160 258L161 259L160 258z"/>
<path style="fill:#5b87ca; stroke:none;" d="M161 258L162 259L161 258M119 259L120 260L119 259z"/>
<path style="fill:#a846b2; stroke:none;" d="M120 259L121 260L120 259z"/>
<path style="fill:#5b87ca; stroke:none;" d="M158 259L159 260L158 259M220 259L221 260L220 259M291 259L292 260L291 259z"/>
<path style="fill:#a846b2; stroke:none;" d="M441 259L442 260L441 259z"/>
<path style="fill:#5b87ca; stroke:none;" d="M122.667 260.333L123.333 260.667L122.667 260.333M154.667 260.333L155.333 260.667L154.667 260.333z"/>
<path style="fill:#a846b2; stroke:none;" d="M218 260L219 261L218 260M293 260L294 261L293 260z"/>
<path style="fill:#5b87ca; stroke:none;" d="M441 260L442 261L441 260M71 261L72 262L71 261M127.667 261.333L128.333 261.667L127.667 261.333z"/>
<path style="fill:#a846b2; stroke:none;" d="M129 261L130 262L129 261z"/>
<path style="fill:#5b87ca; stroke:none;" d="M149 261L149 262L152 262L149 261M217 261L218 262L217 261M294 261L295 262L294 261M134 262L134 263L145 263L134 262z"/>
<path style="fill:#a846b2; stroke:none;" d="M193 263L194 264L193 263z"/>
<path style="fill:#5b87ca; stroke:none;" d="M214 263L215 264L214 263M297 263L298 264L297 263z"/>
<path style="fill:#a846b2; stroke:none;" d="M318 263L319 264L318 263z"/>
<path style="fill:#5b87ca; stroke:none;" d="M442 263L443 264L442 263M70 264L71 265L70 264M192 264L193 265L192 264M213 264L214 265L213 264M319 264L320 265L319 264M191 265L192 266L191 265M320 265L321 266L320 265M443.333 266.667L443.667 267.333L443.333 266.667M69.3333 267.667L69.6667 268.333L69.3333 267.667z"/>
<path style="fill:#a846b2; stroke:none;" d="M189 268L190 269L189 268M322 268L323 269L322 268z"/>
<path style="fill:#5b87ca; stroke:none;" d="M188 269L189 270L188 269M323 269L324 270L323 269z"/>
<path style="fill:#a846b2; stroke:none;" d="M68 270L69 271L68 270z"/>
<path style="fill:#5b87ca; stroke:none;" d="M444.333 270.667L444.667 271.333L444.333 270.667M68 271L69 272L68 271z"/>
<path style="fill:#a846b2; stroke:none;" d="M187 271L188 272L187 271M324 271L325 272L324 271M460 271L461 272L460 271z"/>
<path style="fill:#5b87ca; stroke:none;" d="M186 272L187 273L186 272M325 272L326 273L325 272z"/>
<path style="fill:#a846b2; stroke:none;" d="M67 274L68 275L67 274M185 274L186 275L185 274z"/>
<path style="fill:#5b87ca; stroke:none;" d="M308 274L309 275L308 274z"/>
<path style="fill:#a846b2; stroke:none;" d="M326 274L327 275L326 274M445 274L446 275L445 274z"/>
<path style="fill:#5b87ca; stroke:none;" d="M67 275L68 276L67 275M202 275L203 276L202 275M309 275L310 276L309 275M445 275L446 276L445 275z"/>
<path style="fill:#a846b2; stroke:none;" d="M184 276L185 277L184 276M201 276L202 277L201 276M310 276L311 277L310 276M327 276L328 277L327 276M461 276L462 277L461 276z"/>
<path style="fill:#5b87ca; stroke:none;" d="M183 277L184 278L183 277M328 277L329 278L328 277z"/>
<path style="fill:#a846b2; stroke:none;" d="M66 278L67 279L66 278z"/>
<path style="fill:#5b87ca; stroke:none;" d="M311 278L312 279L311 278M66.3333 279.667L66.6667 280.333L66.3333 279.667M182 279L183 280L182 279z"/>
<path style="fill:#a846b2; stroke:none;" d="M199 279L200 280L199 279M312 279L313 280L312 279z"/>
<path style="fill:#5b87ca; stroke:none;" d="M329 279L330 280L329 279z"/>
<path style="fill:#a846b2; stroke:none;" d="M446 279L447 280L446 279M50 280L51 281L50 280z"/>
<path style="fill:#5b87ca; stroke:none;" d="M446.333 280.667L446.667 281.333L446.333 280.667M181 281L182 282L181 281M313 281L314 282L313 281M330 281L331 282L330 281z"/>
<path style="fill:#a846b2; stroke:none;" d="M197 282L198 283L197 282M314 282L315 283L314 282M65 283L66 284L65 283z"/>
<path style="fill:#5b87ca; stroke:none;" d="M180 283L181 284L180 283M331 283L332 284L331 283M65.3333 284.667L65.6667 285.333L65.3333 284.667z"/>
<path style="fill:#a846b2; stroke:none;" d="M180 284L181 285L180 284z"/>
<path style="fill:#5b87ca; stroke:none;" d="M196 284L197 285L196 284M315 284L316 285L315 284z"/>
<path style="fill:#a846b2; stroke:none;" d="M331 284L332 285L331 284M447.333 285.667L447.667 286.333L447.333 285.667M179 286L180 287L179 286z"/>
<path style="fill:#5b87ca; stroke:none;" d="M195 286L196 287L195 286M316 286L317 287L316 286z"/>
<path style="fill:#a846b2; stroke:none;" d="M332 286L333 287L332 286z"/>
<path style="fill:#5b87ca; stroke:none;" d="M447.333 287.667L447.667 288.333L447.333 287.667z"/>
<path style="fill:#a846b2; stroke:none;" d="M64.3333 288.667L64.6667 289.333L64.3333 288.667z"/>
<path style="fill:#5b87ca; stroke:none;" d="M178 288L179 289L178 288M194 288L195 289L194 288M317 288L318 289L317 288M333 288L334 289L333 288z"/>
<path style="fill:#a846b2; stroke:none;" d="M178 289L179 290L178 289M333 289L334 290L333 289z"/>
<path style="fill:#5b87ca; stroke:none;" d="M64.3333 290.667L64.6667 291.333L64.3333 290.667z"/>
<path style="fill:#a846b2; stroke:none;" d="M193 290L194 291L193 290M318 290L319 291L318 290z"/>
<path style="fill:#5b87ca; stroke:none;" d="M177 291L178 292L177 291M334 291L335 292L334 291z"/>
<path style="fill:#a846b2; stroke:none;" d="M463 291L464 292L463 291M177 292L178 293L177 292M334 292L335 293L334 292z"/>
<path style="fill:#5b87ca; stroke:none;" d="M192 293L193 294L192 293M319 293L320 294L319 293z"/>
<path style="fill:#a846b2; stroke:none;" d="M448 293L448 297L449 297L448 293z"/>
<path style="fill:#5b87ca; stroke:none;" d="M176 294L177 295L176 294M335 294L336 295L335 294z"/>
<path style="fill:#a846b2; stroke:none;" d="M63 295L63 299L64 299L63 295M176 295L177 296L176 295M191 295L192 296L191 295M320 295L321 296L320 295M335 295L336 296L335 295z"/>
<path style="fill:#5b87ca; stroke:none;" d="M191 296L192 297L191 296M320 296L321 297L320 296M448 297L448 301L449 301L448 297M175 298L176 299L175 298z"/>
<path style="fill:#a846b2; stroke:none;" d="M190 298L191 299L190 298M321 298L322 299L321 298z"/>
<path style="fill:#5b87ca; stroke:none;" d="M336 298L337 299L336 298M63 299L63 302L64 302L63 299z"/>
<path style="fill:#a846b2; stroke:none;" d="M175.333 299.667L175.667 300.333L175.333 299.667z"/>
<path style="fill:#5b87ca; stroke:none;" d="M190 299L191 300L190 299M321 299L322 300L321 299z"/>
<path style="fill:#a846b2; stroke:none;" d="M336.333 299.667L336.667 300.333L336.333 299.667M48 300L49 301L48 300M189 302L175.028 304.603L173 326L173 383C151.153 383.998 139.798 411.297 156.093 426.815C167.696 437.864 188.342 434 203 434C211.05 493.732 300.95 493.732 309 434C323.658 434 344.304 437.864 355.907 426.815C372.202 411.297 360.847 383.998 339 383L339 326L336.972 304.603L322 302C328.082 327.252 324 357.117 324 383L188 383L188 325L189 302M48 303C48 332.983 51.6691 362.396 64.3086 390C75.7852 415.064 91.7866 438.089 112 456.91C191.105 530.567 319.308 529.81 399 457.83C419.38 439.423 434.871 416.599 446.742 392C460.231 364.047 464 333.606 464 303L449 303C449 330.87 444.374 358.485 432.691 384C422.619 405.997 408.505 426.216 391 442.961C296.116 533.724 135.756 503.504 79.7809 385C67.6359 359.288 63 331.219 63 303L48 303z"/>
<path style="fill:#5b87ca; stroke:none;" d="M174 303L175 304L174 303M189 303L190 304L189 303M322.333 303.667L322.667 304.333L322.333 303.667M337 303L338 304L337 303M188.333 310.667L188.667 311.333L188.333 310.667M323.333 310.667L323.667 311.333L323.333 310.667M173 311L173 316L174 316L173 311M338 311L338 316L339 316L338 311M63 319L63 322L64 322L63 319M448.333 319.667L448.667 320.333L448.333 319.667M64 331L65 332L64 331M447 331L448 332L447 331M65 338L66 339L65 338M446 338L447 339L446 338M68 353L69 354L68 353M457 361L458 362L457 361M57 371L58 372L57 371M75 375L76 376L75 375M450 382L451 383L450 382z"/>
<path style="fill:#dec9ff; stroke:none;" d="M170.005 398.742C160.585 402.404 161.783 415.417 171.004 418.347C182.704 422.066 199.742 419 212 419L302 419C312.702 419 336.166 423.373 344.786 416.347C352.164 410.334 348.043 399.12 339 398.109C300.715 393.828 259.55 398 221 398L186 398C181.09 398 174.655 396.935 170.005 398.742z"/>
<path style="fill:#5b87ca; stroke:none;" d="M79 417L80 418L79 417M430 420L431 421L430 420M83 423L84 424L83 423z"/>
<path style="fill:#dec9ff; stroke:none;" d="M218 434C227.347 474.382 284.653 474.382 294 434L218 434z"/>
<path style="fill:#5b87ca; stroke:none;" d="M137 476L138 477L137 476M374 476L375 477L374 476M140 478L141 479L140 478M371 478L372 479L371 478z"/>
</svg>
